<svg width="354" height="46" viewBox="0 0 354 46" fill="none" xmlns="http://www.w3.org/2000/svg">
<path d="M0.4 34.28L3.28 33.56V2.84L0.4 2.12V1.4H12.64C18.368 1.4 22.752 2.872 25.792 5.816C28.864 8.76 30.4 12.888 30.4 18.2C30.4 23.512 28.864 27.64 25.792 30.584C22.752 33.528 18.368 35 12.64 35H0.4V34.28ZM12.64 33.8C15.616 33.8 17.92 32.6 19.552 30.2C21.184 27.768 22 23.768 22 18.2C22 12.632 21.184 8.648 19.552 6.248C17.92 3.816 15.616 2.6 12.64 2.6H11.2V33.8H12.64ZM43.5925 35.72C40.7445 35.72 38.5525 35.112 37.0165 33.896C35.4805 32.68 34.7125 31.128 34.7125 29.24C34.7125 27.992 34.9845 26.76 35.5285 25.544C35.7525 24.968 36.0405 24.44 36.3925 23.96C37.7045 23.64 39.1285 23.352 40.6645 23.096C44.1205 22.52 47.1765 22.168 49.8325 22.04V20.6C49.8325 17.048 49.4005 14.6 48.5365 13.256C47.6725 11.912 46.3445 11.24 44.5525 11.24C43.8805 11.24 43.3045 11.32 42.8245 11.48L42.1525 11.72V18.92L41.5285 19.064C41.0165 19.128 40.5845 19.16 40.2325 19.16C39.1445 19.16 38.2645 18.84 37.5925 18.2C36.9525 17.528 36.6325 16.648 36.6325 15.56C36.6325 14.088 37.3685 12.84 38.8405 11.816C40.3445 10.792 42.5685 10.28 45.5125 10.28C48.0085 10.28 50.1525 10.728 51.9445 11.624C53.7685 12.488 55.1445 13.704 56.0725 15.272C57.0325 16.808 57.5125 18.584 57.5125 20.6V33.56L60.3925 34.28V35H56.0725C54.1525 35 52.6645 34.408 51.6085 33.224C51.1605 32.744 50.8085 32.136 50.5525 31.4C50.1045 32.2 49.5765 32.92 48.9685 33.56C47.5285 35 45.7365 35.72 43.5925 35.72ZM45.5125 34.04C46.6965 34.04 47.7685 33.4 48.7285 32.12C49.0805 31.64 49.4485 31 49.8325 30.2V23.24C48.3605 23.24 46.9525 23.32 45.6085 23.48C44.6165 23.608 43.9445 23.688 43.5925 23.72C43.4325 24.072 43.2725 24.552 43.1125 25.16C42.7925 26.376 42.6325 27.576 42.6325 28.76C42.6325 30.552 42.9045 31.88 43.4485 32.744C43.9925 33.608 44.6805 34.04 45.5125 34.04ZM63.295 34.28L66.175 33.56V12.44L63.295 11.72V11H69.535C72.415 11 73.855 12.44 73.855 15.32V33.56L76.735 34.28V35H63.295V34.28ZM69.535 8.12C68.575 8.12 67.775 7.8 67.135 7.16C66.495 6.52 66.175 5.72 66.175 4.76C66.175 3.8 66.495 3 67.135 2.36C67.775 1.72 68.575 1.4 69.535 1.4C70.495 1.4 71.295 1.72 71.935 2.36C72.575 3 72.895 3.8 72.895 4.76C72.895 5.72 72.575 6.52 71.935 7.16C71.295 7.8 70.495 8.12 69.535 8.12ZM79.6075 34.28L82.4875 33.56V2.84L79.6075 2.12V1.4H85.8475C88.7275 1.4 90.1675 2.84 90.1675 5.72V33.56L93.0475 34.28V35H79.6075V34.28ZM101.2 45.32C99.76 45.32 98.64 44.936 97.84 44.168C97.04 43.4 96.64 42.344 96.64 41C96.64 39.784 96.96 38.84 97.6 38.168C98.272 37.496 99.152 37.16 100.24 37.16C100.496 37.16 100.752 37.176 101.008 37.208C101.264 37.272 101.44 37.304 101.536 37.304L102.16 37.4V43.88C103.088 43.72 103.904 43.208 104.608 42.344C105.312 41.48 106.096 39.992 106.96 37.88L107.92 35.48L95.44 12.44L93.04 11.72V11H99.04C100.704 11 102.016 11.352 102.976 12.056C103.968 12.728 104.816 13.736 105.52 15.08L111.52 26.168L116.56 13.16L112.96 11.72V11H121.84V11.72L118 13.16L108.4 37.88C107.376 40.504 106.288 42.392 105.136 43.544C103.984 44.728 102.672 45.32 101.2 45.32ZM141.033 9.56V32.84L144.873 34.28V35H135.753V34.28L139.593 32.84V3.08L136.233 2.12V1.4H141.273C142.969 1.4 144.297 1.704 145.257 2.312C146.217 2.92 147.129 3.736 147.993 4.76L163.353 22.76V3.56L159.513 2.12V1.4H168.633V2.12L164.793 3.56V35.72H163.353L141.033 9.56ZM184.004 35.72C181.732 35.72 179.604 35.208 177.62 34.184C176.724 33.736 175.972 33.208 175.364 32.6C174.916 33.336 174.356 33.992 173.684 34.568C173.108 34.984 172.788 35.208 172.724 35.24H171.524V26.12H173.444C173.924 27.688 174.596 29.096 175.46 30.344C177.412 33.128 179.94 34.52 183.044 34.52C184.868 34.52 186.324 33.976 187.412 32.888C188.5 31.8 189.044 30.344 189.044 28.52C189.044 27.464 188.724 26.52 188.084 25.688C187.476 24.856 186.708 24.12 185.78 23.48C184.852 22.84 183.556 22.04 181.892 21.08C179.78 19.896 178.068 18.824 176.756 17.864C175.444 16.904 174.324 15.704 173.396 14.264C172.468 12.792 172.004 11.064 172.004 9.08C172.004 7.512 172.436 6.104 173.3 4.856C174.196 3.576 175.524 2.568 177.284 1.832C179.044 1.064 181.204 0.679998 183.764 0.679998C185.62 0.679998 187.476 1.208 189.332 2.264C190.036 2.648 190.74 3.16 191.444 3.8C191.988 2.968 192.548 2.312 193.124 1.832C193.7 1.416 194.02 1.192 194.084 1.16H195.284V10.28H193.364C192.948 8.744 192.324 7.352 191.492 6.104C190.724 4.888 189.764 3.88 188.612 3.08C187.492 2.28 186.196 1.88 184.724 1.88C183.476 1.88 182.404 2.376 181.508 3.368C180.612 4.36 180.164 5.624 180.164 7.16C180.164 8.344 180.5 9.416 181.172 10.376C181.876 11.304 182.724 12.12 183.716 12.824C184.74 13.528 186.116 14.376 187.844 15.368C189.86 16.52 191.492 17.544 192.74 18.44C193.988 19.336 195.044 20.456 195.908 21.8C196.772 23.112 197.204 24.632 197.204 26.36C197.204 28.088 196.708 29.672 195.716 31.112C194.724 32.52 193.236 33.64 191.252 34.472C189.268 35.304 186.852 35.72 184.004 35.72ZM217.351 35.72C212.615 35.72 209.031 34.616 206.599 32.408C204.167 30.168 202.951 27.032 202.951 23V2.84L200.071 2.12V1.4H213.751V2.12L210.871 2.84V23C210.871 27.128 211.511 30.088 212.791 31.88C214.071 33.64 215.911 34.52 218.311 34.52C219.783 34.52 221.175 34.056 222.487 33.128C223.831 32.168 224.903 30.824 225.703 29.096C226.535 27.336 226.951 25.304 226.951 23V3.56L223.111 2.12V1.4H232.231V2.12L228.391 3.56V23C228.391 25.592 227.911 27.848 226.951 29.768C225.991 31.688 224.679 33.16 223.015 34.184C221.351 35.208 219.463 35.72 217.351 35.72ZM248.322 34.28L251.202 33.56V2.84L248.322 2.12V1.4H261.282C266.146 1.4 269.714 2.184 271.986 3.752C274.29 5.288 275.442 7.304 275.442 9.8C275.442 11.528 274.946 12.92 273.954 13.976C272.962 15.032 271.698 15.816 270.162 16.328C268.53 16.904 266.77 17.208 264.882 17.24V17.48C267.218 17.576 269.25 17.928 270.978 18.536C272.738 19.112 274.194 20.008 275.346 21.224C276.53 22.44 277.122 23.992 277.122 25.88C277.122 28.728 275.954 30.968 273.618 32.6C271.282 34.2 267.49 35 262.242 35H248.322V34.28ZM261.282 16.76C262.338 16.76 263.314 16.472 264.21 15.896C265.138 15.288 265.874 14.456 266.418 13.4C266.994 12.312 267.282 11.112 267.282 9.8C267.282 8.392 266.994 7.144 266.418 6.056C265.874 4.968 265.138 4.12 264.21 3.512C263.314 2.904 262.338 2.6 261.282 2.6H259.122V16.76H261.282ZM262.242 33.8C264.226 33.8 265.842 33.096 267.09 31.688C268.338 30.28 268.962 28.344 268.962 25.88C268.962 23.416 268.338 21.48 267.09 20.072C265.842 18.664 264.226 17.96 262.242 17.96H259.122V33.8H262.242ZM280.467 34.28L283.347 33.56V2.84L280.467 2.12V1.4H286.707C289.587 1.4 291.027 2.84 291.027 5.72V33.56L293.907 34.28V35H280.467V34.28ZM309.499 35.72C305.531 35.72 302.411 34.6 300.139 32.36C297.899 30.088 296.779 26.968 296.779 23C296.779 19.032 297.899 15.928 300.139 13.688C302.411 11.416 305.531 10.28 309.499 10.28C313.467 10.28 316.571 11.416 318.811 13.688C321.083 15.928 322.219 19.032 322.219 23C322.219 26.968 321.083 30.088 318.811 32.36C316.571 34.6 313.467 35.72 309.499 35.72ZM309.499 34.76C310.779 34.76 311.851 33.864 312.715 32.072C313.611 30.28 314.059 27.256 314.059 23C314.059 18.744 313.611 15.72 312.715 13.928C311.851 12.136 310.779 11.24 309.499 11.24C308.219 11.24 307.131 12.136 306.235 13.928C305.371 15.72 304.939 18.744 304.939 23C304.939 27.256 305.371 30.28 306.235 32.072C307.131 33.864 308.219 34.76 309.499 34.76ZM337.356 45.32C334.508 45.32 332.188 45.064 330.396 44.552C328.604 44.04 327.308 43.384 326.508 42.584C325.74 41.784 325.356 40.936 325.356 40.04C325.356 38.952 325.676 38.072 326.316 37.4C326.988 36.76 327.868 36.44 328.956 36.44C329.212 36.44 329.676 36.488 330.348 36.584L330.876 36.68V43.4C331.26 43.528 331.868 43.688 332.7 43.88C334.172 44.2 335.564 44.36 336.876 44.36C340.78 44.36 343.628 43.8 345.42 42.68C347.244 41.592 348.156 40.232 348.156 38.6C348.156 36.52 346.236 35.48 342.396 35.48H333.276C330.876 35.48 329.036 34.984 327.756 33.992C326.476 33 325.836 31.736 325.836 30.2C325.836 28.664 326.588 27.304 328.092 26.12C328.7 25.672 329.468 25.272 330.396 24.92C329.212 24.184 328.348 23.32 327.804 22.328C327.292 21.304 327.036 20.088 327.036 18.68C327.036 16.312 327.932 14.408 329.724 12.968C331.516 11.496 334.14 10.76 337.596 10.76C339.1 10.76 340.476 10.92 341.724 11.24C343.004 11.528 344.028 11.928 344.796 12.44C345.052 11.896 345.388 11.416 345.804 11C346.764 10.04 347.948 9.56 349.356 9.56C350.444 9.56 351.356 9.944 352.092 10.712C352.828 11.448 353.196 12.424 353.196 13.64C353.196 14.568 352.94 15.32 352.428 15.896C351.948 16.472 351.324 16.76 350.556 16.76C350.204 16.76 349.804 16.728 349.356 16.664L348.876 16.52V10.76C348.044 10.76 347.26 11.16 346.524 11.96C346.236 12.248 345.98 12.648 345.756 13.16C347.356 14.568 348.156 16.408 348.156 18.68C348.156 21.048 347.26 22.968 345.468 24.44C343.676 25.88 341.052 26.6 337.596 26.6C335.292 26.6 333.212 26.2 331.356 25.4L330.396 25.88C330.076 26.072 329.836 26.264 329.676 26.456C329.516 26.616 329.436 26.824 329.436 27.08C329.436 27.624 329.708 28.04 330.252 28.328C330.828 28.616 331.836 28.76 333.276 28.76H342.396C344.796 28.76 346.668 29.464 348.012 30.872C349.388 32.248 350.076 34.184 350.076 36.68C350.076 39.24 349.004 41.32 346.86 42.92C344.748 44.52 341.58 45.32 337.356 45.32ZM337.596 25.64C338.652 25.64 339.468 25.128 340.044 24.104C340.652 23.08 340.956 21.272 340.956 18.68C340.956 16.088 340.652 14.28 340.044 13.256C339.468 12.232 338.652 11.72 337.596 11.72C336.54 11.72 335.708 12.232 335.1 13.256C334.524 14.28 334.236 16.088 334.236 18.68C334.236 21.272 334.524 23.08 335.1 24.104C335.708 25.128 336.54 25.64 337.596 25.64Z" fill="black"/>
</svg>
